<svg width="316" height="93" viewBox="0 0 316 93" fill="none" xmlns="http://www.w3.org/2000/svg">
<path d="M218.207 54.8V51.04L208.807 51.16L209.167 62.32L219.007 62.36V64.08L209.127 64.6L208.807 74.92L213.247 75.8C213.247 76.6 213.047 77 212.647 77C211.5 77 209.687 76.9467 207.207 76.84L203.087 77C202.687 77 202.487 76.6 202.487 75.8L205.847 74.92V51.08L202.487 50.2C202.487 49.4 202.687 49 203.087 49C203.327 49 204.7 49.0533 207.207 49.16L219.607 49C220.433 49 220.86 49.1333 220.887 49.4L219.927 55.36C218.78 55.36 218.207 55.1733 218.207 54.8ZM229.799 68.76L229.519 75.2L232.559 75.76C232.559 76.5867 232.332 77 231.879 77L228.279 76.76L224.959 77C224.479 77 224.239 76.5867 224.239 75.76L226.799 75.2V59.24L224.239 58.68C224.239 57.8533 224.479 57.44 224.959 57.44C225.359 57.44 226.466 57.48 228.279 57.56L232.359 57.44C234.306 57.44 235.852 57.96 236.999 59C238.146 60.04 238.719 61.3333 238.719 62.88C238.719 63.84 238.399 64.7733 237.759 65.68C237.119 66.5867 236.186 67.28 234.959 67.76L240.839 77.24L238.799 77.84L232.159 68.4L229.799 68.76ZM229.879 66.84L231.319 66.88C232.812 66.8267 233.972 66.4 234.799 65.6C235.652 64.8 236.079 63.8933 236.079 62.88C236.079 61.84 235.719 60.9467 234.999 60.2C234.279 59.4533 233.239 59.0667 231.879 59.04L229.519 59.24L229.879 66.84ZM245.929 59.24L243.369 58.68C243.369 57.8533 243.609 57.44 244.089 57.44C244.489 57.44 245.596 57.48 247.409 57.56L250.649 57.44C251.103 57.44 251.329 57.84 251.329 58.64L248.769 59.24V75.2L251.329 75.76C251.329 76.5867 251.103 77 250.649 77L247.409 76.76L244.089 77C243.609 77 243.369 76.5867 243.369 75.76L245.929 75.2V59.24ZM259.313 57.56C261.793 57.32 263.486 57.1733 264.393 57.12C267.326 57.12 269.793 57.8133 271.793 59.2C272.833 59.92 273.646 60.9333 274.233 62.24C274.846 63.5467 275.153 65.0933 275.153 66.88C275.153 70.2667 274.22 72.8267 272.353 74.56C270.486 76.2933 267.98 77.16 264.833 77.16L259.353 76.76L255.993 77C255.513 77 255.273 76.5867 255.273 75.76L257.833 75.2V59.24L255.273 58.68C255.273 57.8533 255.513 57.44 255.993 57.44C256.393 57.44 257.5 57.48 259.313 57.56ZM260.913 66.96L260.513 75C261.926 75.2667 263.566 75.4 265.433 75.4C267.3 75.4 268.86 74.7067 270.113 73.32C271.393 71.9333 272.033 69.88 272.033 67.16C272.033 61.72 269.513 59 264.473 59C263.3 59 261.98 59.1333 260.513 59.4L260.913 66.96ZM294.354 73.72L294.674 74.88C292.301 76.5067 289.701 77.32 286.874 77.32C284.048 77.32 281.741 76.4533 279.954 74.72C278.194 72.96 277.314 70.4667 277.314 67.24C277.314 63.9867 278.274 61.4933 280.194 59.76C282.114 58 284.421 57.12 287.114 57.12C289.834 57.12 292.168 57.7067 294.114 58.88L293.274 63.28C292.154 63.28 291.594 63.0667 291.594 62.64V59.76C290.341 59.3867 288.981 59.2 287.514 59.2C286.074 59.2 284.661 59.4 283.274 59.8C282.421 60.4133 281.728 61.3867 281.194 62.72C280.688 64.0267 280.434 65.5067 280.434 67.16C280.434 69.8267 281.061 71.8667 282.314 73.28C283.594 74.6933 285.248 75.4 287.274 75.4C289.301 75.4 290.901 74.9467 292.074 74.04L291.634 68.64C290.968 68.6133 289.954 68.56 288.594 68.48C287.234 68.4 286.434 68.36 286.194 68.36V66.72H294.354V73.72ZM312.336 77L302.456 76.76L299.136 77C298.656 77 298.416 76.5867 298.416 75.76L300.976 75.2V59.24L298.416 58.68C298.416 57.8533 298.656 57.44 299.136 57.44C299.536 57.44 300.643 57.48 302.456 57.56L312.136 57.44C312.67 57.44 313.003 57.4933 313.136 57.6C313.27 57.68 313.336 57.8133 313.336 58L312.616 62.24C311.523 62.24 310.976 62.04 310.976 61.64V59.32L303.656 59.4L304.016 66.04H311.416V67.68L303.976 68.12L303.656 75.04H311.336L312.016 72.76C312.096 72.4667 312.243 72.28 312.456 72.2C312.696 72.12 313.11 72.08 313.696 72.08L313.456 76.52C313.403 76.84 313.03 77 312.336 77Z" fill="white"/>
<path d="M178.176 49H179.424V47.416L180.704 47.048V49H182.88V50.12H180.704V54.552C180.704 55.1067 180.773 55.5013 180.912 55.736C181.051 55.96 181.285 56.072 181.616 56.072C181.893 56.072 182.128 56.0453 182.32 55.992C182.512 55.928 182.725 55.848 182.96 55.752L183.248 56.728C182.96 56.8667 182.645 56.9787 182.304 57.064C181.963 57.1493 181.595 57.192 181.2 57.192C180.549 57.192 180.091 57.0107 179.824 56.648C179.557 56.2747 179.424 55.656 179.424 54.792V50.12H178.176V49ZM189.614 57V52.44C189.614 52.024 189.587 51.6613 189.534 51.352C189.491 51.032 189.406 50.7707 189.278 50.568C189.15 50.3547 188.974 50.1947 188.75 50.088C188.537 49.9813 188.254 49.928 187.902 49.928C187.401 49.928 186.947 50.0933 186.542 50.424C186.137 50.744 185.875 51.16 185.758 51.672V57H184.478V45.8H185.758V49.896H185.822C186.099 49.5653 186.43 49.304 186.814 49.112C187.209 48.9093 187.694 48.808 188.27 48.808C188.718 48.808 189.107 48.8613 189.438 48.968C189.769 49.064 190.041 49.24 190.254 49.496C190.478 49.752 190.638 50.0987 190.734 50.536C190.841 50.9627 190.894 51.5067 190.894 52.168V57H189.614ZM198.892 56.36C198.572 56.616 198.167 56.8187 197.676 56.968C197.196 57.1173 196.684 57.192 196.14 57.192C195.532 57.192 195.004 57.096 194.556 56.904C194.108 56.7013 193.74 56.4187 193.452 56.056C193.164 55.6827 192.951 55.24 192.812 54.728C192.673 54.216 192.604 53.64 192.604 53C192.604 51.6347 192.908 50.5947 193.516 49.88C194.124 49.1653 194.993 48.808 196.124 48.808C196.487 48.808 196.849 48.8507 197.212 48.936C197.575 49.0107 197.9 49.16 198.188 49.384C198.476 49.608 198.711 49.928 198.892 50.344C199.073 50.7493 199.164 51.288 199.164 51.96C199.164 52.312 199.132 52.7013 199.068 53.128H193.932C193.932 53.5973 193.98 54.0133 194.076 54.376C194.172 54.7387 194.321 55.048 194.524 55.304C194.727 55.5493 194.988 55.7413 195.308 55.88C195.639 56.008 196.039 56.072 196.508 56.072C196.871 56.072 197.233 56.008 197.596 55.88C197.959 55.752 198.231 55.6027 198.412 55.432L198.892 56.36ZM196.14 49.928C195.511 49.928 195.004 50.0933 194.62 50.424C194.247 50.7547 194.023 51.32 193.948 52.12H197.916C197.916 51.3093 197.761 50.744 197.452 50.424C197.143 50.0933 196.705 49.928 196.14 49.928Z" fill="white"/>
<path d="M201.232 33.8H202.512V37.784H202.576C202.821 37.4747 203.131 37.2347 203.504 37.064C203.888 36.8933 204.304 36.808 204.752 36.808C205.787 36.808 206.56 37.1387 207.072 37.8C207.595 38.4613 207.856 39.4853 207.856 40.872C207.856 42.2693 207.515 43.3307 206.832 44.056C206.149 44.7813 205.189 45.144 203.952 45.144C203.355 45.144 202.811 45.08 202.32 44.952C201.84 44.824 201.477 44.6853 201.232 44.536V33.8ZM204.528 37.928C203.995 37.928 203.563 38.0773 203.232 38.376C202.901 38.6747 202.661 39.096 202.512 39.64V43.672C202.715 43.7893 202.96 43.88 203.248 43.944C203.536 43.9973 203.835 44.024 204.144 44.024C204.869 44.024 205.445 43.768 205.872 43.256C206.309 42.744 206.528 41.944 206.528 40.856C206.528 40.44 206.491 40.0507 206.416 39.688C206.341 39.3253 206.224 39.016 206.064 38.76C205.904 38.504 205.696 38.3013 205.44 38.152C205.195 38.0027 204.891 37.928 204.528 37.928ZM210.849 37V41.56C210.849 41.976 210.87 42.344 210.913 42.664C210.966 42.9733 211.051 43.2347 211.169 43.448C211.286 43.6507 211.446 43.8053 211.649 43.912C211.851 44.0187 212.107 44.072 212.417 44.072C212.705 44.072 212.961 44.0293 213.185 43.944C213.409 43.848 213.606 43.72 213.777 43.56C213.958 43.4 214.113 43.2187 214.241 43.016C214.379 42.8027 214.491 42.5787 214.577 42.344V37H215.857V42.728C215.857 43.112 215.867 43.512 215.889 43.928C215.921 44.3333 215.969 44.6907 216.033 45H215.153L214.833 43.736H214.753C214.507 44.152 214.177 44.4987 213.761 44.776C213.345 45.0533 212.817 45.192 212.177 45.192C211.75 45.192 211.371 45.1387 211.041 45.032C210.721 44.936 210.449 44.76 210.225 44.504C210.011 44.248 209.846 43.9067 209.729 43.48C209.622 43.0427 209.569 42.4933 209.569 41.832V37H210.849ZM217.09 37H218.338V35.416L219.618 35.048V37H221.794V38.12H219.618V42.552C219.618 43.1067 219.687 43.5013 219.826 43.736C219.964 43.96 220.199 44.072 220.53 44.072C220.807 44.072 221.042 44.0453 221.234 43.992C221.426 43.928 221.639 43.848 221.874 43.752L222.162 44.728C221.874 44.8667 221.559 44.9787 221.218 45.064C220.876 45.1493 220.508 45.192 220.114 45.192C219.463 45.192 219.004 45.0107 218.738 44.648C218.471 44.2747 218.338 43.656 218.338 42.792V38.12H217.09V37Z" fill="white"/>
<path d="M18.92 22.8V19.04L8.32 19.16L8.68 29.72H18.92V31.44L8.68 31.96L8.32 42.8H19.32L20.36 39.04C20.36 38.6667 20.92 38.48 22.04 38.48L21.72 44.52C21.6933 44.84 21.3067 45 20.56 45L6.8 44.68L2.6 45C2.2 45 2 44.6 2 43.8L5.36 42.92V19.08L2 18.2C2 17.4 2.2 17 2.6 17C2.84 17 4.21333 17.0533 6.72 17.16L20.32 17C21.1467 17 21.5733 17.1333 21.6 17.4L20.64 23.36C19.4933 23.36 18.92 23.1733 18.92 22.8ZM34.2234 41.64L39.1034 27.24C38.6768 27.1333 37.8768 26.9467 36.7034 26.68C36.7034 25.8533 36.9434 25.44 37.4234 25.44L40.5834 25.56L42.8634 25.44C43.3434 25.4933 43.5834 25.8933 43.5834 26.64L41.6234 27.24L35.2234 45H32.7434L26.1434 27.28L24.1834 26.64C24.1834 25.84 24.4368 25.44 24.9434 25.44C25.1834 25.44 26.1568 25.48 27.8634 25.56L30.9834 25.44C31.4368 25.44 31.6634 25.8533 31.6634 26.68L29.2634 27.24L34.2234 41.64ZM59.8494 45L49.9694 44.76L46.6494 45C46.1694 45 45.9294 44.5867 45.9294 43.76L48.4894 43.2V27.24L45.9294 26.68C45.9294 25.8533 46.1694 25.44 46.6494 25.44C47.0494 25.44 48.156 25.48 49.9694 25.56L59.6494 25.44C60.1827 25.44 60.516 25.4933 60.6494 25.6C60.7827 25.68 60.8494 25.8133 60.8494 26L60.1294 30.24C59.036 30.24 58.4894 30.04 58.4894 29.64V27.32L51.1694 27.4L51.5294 34.04H58.9294V35.68L51.4894 36.12L51.1694 43.04H58.8494L59.5294 40.76C59.6094 40.4667 59.756 40.28 59.9694 40.2C60.2094 40.12 60.6227 40.08 61.2094 40.08L60.9694 44.52C60.916 44.84 60.5427 45 59.8494 45ZM70.3463 36.76L70.0663 43.2L73.1063 43.76C73.1063 44.5867 72.8796 45 72.4263 45L68.8263 44.76L65.5063 45C65.0263 45 64.7863 44.5867 64.7863 43.76L67.3463 43.2V27.24L64.7863 26.68C64.7863 25.8533 65.0263 25.44 65.5063 25.44C65.9063 25.44 67.0129 25.48 68.8263 25.56L72.9063 25.44C74.8529 25.44 76.3996 25.96 77.5463 27C78.6929 28.04 79.2663 29.3333 79.2663 30.88C79.2663 31.84 78.9463 32.7733 78.3063 33.68C77.6663 34.5867 76.7329 35.28 75.5063 35.76L81.3863 45.24L79.3463 45.84L72.7063 36.4L70.3463 36.76ZM70.4263 34.84L71.8663 34.88C73.3596 34.8267 74.5196 34.4 75.3463 33.6C76.1996 32.8 76.6263 31.8933 76.6263 30.88C76.6263 29.84 76.2663 28.9467 75.5463 28.2C74.8263 27.4533 73.7863 27.0667 72.4263 27.04L70.0663 27.24L70.4263 34.84ZM95.4766 27.24C94.0366 26.92 93.2366 26.7333 93.0766 26.68C93.0766 25.8533 93.3166 25.44 93.7966 25.44L96.8366 25.56L99.1566 25.44C99.6099 25.4933 99.8366 25.8933 99.8366 26.64L97.8766 27.28L92.7166 37.2V43.16L95.5566 43.76C95.5566 44.5867 95.3299 45 94.8766 45L91.3966 44.76L87.8366 45C87.3299 45 87.0766 44.5867 87.0766 43.76L89.9166 43.16V37.24L84.3166 27.28L82.3166 26.64C82.3166 25.84 82.5699 25.44 83.0766 25.44C83.2366 25.44 84.1699 25.48 85.8766 25.56L88.9566 25.44C89.4099 25.44 89.6366 25.8533 89.6366 26.68L87.3166 27.24C89.1566 30.8133 90.5699 33.5333 91.5566 35.4L95.4766 27.24ZM115.068 27.28L110.508 27.36V43.08L113.748 43.76C113.748 44.5867 113.521 45 113.068 45L109.188 44.76L105.228 45C104.721 45 104.468 44.5867 104.468 43.76L107.708 43.08V27.36L103.188 27.28L102.788 30.08C102.788 30.48 102.254 30.68 101.188 30.68L100.788 25.96C100.841 25.6133 101.241 25.44 101.988 25.44L109.188 25.6L116.268 25.44C117.014 25.44 117.414 25.6133 117.468 25.96L117.068 30.68C116.001 30.68 115.468 30.48 115.468 30.08L115.068 27.28ZM135.669 27.24L132.989 26.68C132.989 25.8533 133.229 25.44 133.709 25.44C134.109 25.44 135.215 25.48 137.029 25.56L140.269 25.44C140.722 25.44 140.949 25.84 140.949 26.64L138.389 27.24V43.2L140.949 43.76C140.949 44.5867 140.722 45 140.269 45L137.029 44.76L133.709 45C133.229 45 132.989 44.5867 132.989 43.76L135.669 43.2L135.349 35.72L125.589 36.12L125.309 43.2L127.989 43.76C127.989 44.5867 127.762 45 127.309 45L124.069 44.76L120.749 45C120.269 45 120.029 44.5867 120.029 43.76L122.589 43.2V27.24L120.029 26.68C120.029 25.8533 120.269 25.44 120.749 25.44C121.149 25.44 122.255 25.48 124.069 25.56L127.309 25.44C127.762 25.44 127.989 25.84 127.989 26.64L125.309 27.24L125.629 34.04H135.349L135.669 27.24ZM147.461 27.24L144.901 26.68C144.901 25.8533 145.141 25.44 145.621 25.44C146.021 25.44 147.128 25.48 148.941 25.56L152.181 25.44C152.635 25.44 152.861 25.84 152.861 26.64L150.301 27.24V43.2L152.861 43.76C152.861 44.5867 152.635 45 152.181 45L148.941 44.76L145.621 45C145.141 45 144.901 44.5867 144.901 43.76L147.461 43.2V27.24ZM170.685 25.44L174.445 25.56L177.165 25.44C177.618 25.4933 177.845 25.9067 177.845 26.68L175.565 27.28L175.445 45H173.645L161.245 29.6C161.272 31.0933 161.325 33.36 161.405 36.4C161.485 39.4133 161.538 41.68 161.565 43.2C162.232 43.36 163.285 43.5467 164.725 43.76C164.725 44.5867 164.485 45 164.005 45L160.325 44.76L157.325 45C156.845 45 156.605 44.5867 156.605 43.76L159.245 43.16L159.125 27.28L156.605 26.72C156.605 25.8667 156.845 25.44 157.325 25.44C157.698 25.44 159.098 25.48 161.525 25.56L173.405 40.6L173.165 27.28L170.005 26.72C170.005 25.8667 170.232 25.44 170.685 25.44ZM197.839 41.72L198.159 42.88C195.786 44.5067 193.186 45.32 190.359 45.32C187.533 45.32 185.226 44.4533 183.439 42.72C181.679 40.96 180.799 38.4667 180.799 35.24C180.799 31.9867 181.759 29.4933 183.679 27.76C185.599 26 187.906 25.12 190.599 25.12C193.319 25.12 195.653 25.7067 197.599 26.88L196.759 31.28C195.639 31.28 195.079 31.0667 195.079 30.64V27.76C193.826 27.3867 192.466 27.2 190.999 27.2C189.559 27.2 188.146 27.4 186.759 27.8C185.906 28.4133 185.213 29.3867 184.679 30.72C184.173 32.0267 183.919 33.5067 183.919 35.16C183.919 37.8267 184.546 39.8667 185.799 41.28C187.079 42.6933 188.733 43.4 190.759 43.4C192.786 43.4 194.386 42.9467 195.559 42.04L195.119 36.64C194.453 36.6133 193.439 36.56 192.079 36.48C190.719 36.4 189.919 36.36 189.679 36.36V34.72H197.839V41.72Z" fill="white"/>
</svg>
